<?xml version="1.0" standalone="no"?><!DOCTYPE svg PUBLIC "-//W3C//DTD SVG 1.1//EN" "http://www.w3.org/Graphics/SVG/1.1/DTD/svg11.dtd"><svg t="1652436425743" class="icon" viewBox="0 0 1024 1024" version="1.1" xmlns="http://www.w3.org/2000/svg" p-id="4527" xmlns:xlink="http://www.w3.org/1999/xlink" width="200" height="200"><defs><style type="text/css"></style></defs><path d="M767.648321 288.336706a287.86812 287.86812 0 1 0-434.776818 247.118788A480.483878 480.483878 0 0 0 0 992.014333a31.985347 31.985347 0 0 0 63.970693 0 416.257302 416.257302 0 0 1 415.809508-415.809507 288.187974 288.187974 0 0 0 287.86812-287.86812z m-287.86812 223.897427a223.897427 223.897427 0 1 1 223.897427-223.897427 224.15331 224.15331 0 0 1-223.897427 223.897427zM1022.763446 779.535675a39.66183 39.66183 0 0 0-23.797097-28.946739l-336.485848-139.616038a39.789771 39.789771 0 0 0-51.976188 52.008174l139.616038 336.389891a39.66183 39.66183 0 0 0 28.946739 23.861069 39.278006 39.278006 0 0 0 7.868395 0.767648 39.66183 39.66183 0 0 0 28.083135-11.674651l70.431733-123.079615 119.689167-68.608568 6.716923-5.117656a39.693815 39.693815 0 0 0 10.875018-35.983515z m-169.106528 54.183178a69.6321 69.6321 0 0 0-26.355925 26.771735l-37.454841 67.744964-97.875161-235.763991 236.755536 98.227z" fill="#575869" p-id="4528"></path></svg>