<?xml version="1.0" standalone="no"?><!DOCTYPE svg PUBLIC "-//W3C//DTD SVG 1.1//EN" "http://www.w3.org/Graphics/SVG/1.1/DTD/svg11.dtd"><svg t="1651921260502" class="icon" viewBox="0 0 1024 1024" version="1.1" xmlns="http://www.w3.org/2000/svg" p-id="4412" xmlns:xlink="http://www.w3.org/1999/xlink" width="200" height="200"><defs><style type="text/css"></style></defs><path d="M544 752c0-96 57.6-179.2 137.6-217.6-38.4-16-80-22.4-121.6-22.4h-128c-233.6 0-384 227.2-384 384 0 44.8 35.2 80 80 80h569.6c-89.6-35.2-153.6-121.6-153.6-224z" p-id="4413"></path><path d="M496 272m-224 0a224 224 0 1 0 448 0 224 224 0 1 0-448 0Z" p-id="4414"></path><path d="M944 720h-320c-19.2 0-32 12.8-32 32s12.8 32 32 32h320c19.2 0 32-12.8 32-32s-12.8-32-32-32z" p-id="4415"></path></svg>