<?xml version="1.0" standalone="no"?><!DOCTYPE svg PUBLIC "-//W3C//DTD SVG 1.1//EN" "http://www.w3.org/Graphics/SVG/1.1/DTD/svg11.dtd"><svg t="1651921096684" class="icon" viewBox="0 0 1024 1024" version="1.1" xmlns="http://www.w3.org/2000/svg" p-id="4078" xmlns:xlink="http://www.w3.org/1999/xlink" width="200" height="200"><defs><style type="text/css"></style></defs><path d="M512.8 576c-128 0-383.2 64-383.2 192v96c0 17.6 14.4 32 32 32h191.2V736h320v160h192c17.6 0 32-14.4 32-32V767.2C896 640 640.8 576 512.8 576z m319.2 256H704V720c0-8.8-7.2-16-16-16H336c-8.8 0-16 7.2-16 16v112H192.8v-64.8c0-26.4 40-58.4 103.2-84 75.2-29.6 162.4-43.2 216-43.2 53.6 0 140.8 13.6 216 43.2 64 25.6 103.2 57.6 103.2 84l0.8 64.8z m-256-32h64v32h-64v-32z m-64 64h128v32H512v-32zM512 64c-101.6 0-187.2 67.2-214.4 160H192v32h98.4c-1.6 10.4-2.4 20.8-2.4 32 0 124 100 224 224 224s224-100 224-224S636 64 512 64z m0 64c63.2 0 116.8 36.8 143.2 89.6C622.4 204.8 574.4 192 512 192c-60 0-108 11.2-142.4 23.2C396 164 449.6 128 512 128z m0 320c-88 0-160-72-160-160 0-11.2 0.8-21.6 3.2-32 30.4-13.6 84-32 156.8-32 78.4 0 132 21.6 156.8 34.4 1.6 9.6 3.2 19.2 3.2 29.6 0 88-72 160-160 160z" p-id="4079"></path></svg>